<svg xmlns="http://www.w3.org/2000/svg" xmlns:xlink="http://www.w3.org/1999/xlink" viewBox="0 0 1921 164.34"><defs><style>.cls-1{opacity:0.21;}.cls-2{clip-path:url(#clip-path);}.cls-3{fill:none;}.cls-4{clip-path:url(#clip-path-2);}.cls-5{clip-path:url(#clip-path-3);}.cls-6{clip-path:url(#clip-path-4);}.cls-7{clip-path:url(#clip-path-5);}.cls-8{clip-path:url(#clip-path-6);}.cls-9{clip-path:url(#clip-path-7);}.cls-10{clip-path:url(#clip-path-8);}.cls-11{clip-path:url(#clip-path-9);}.cls-12{clip-path:url(#clip-path-10);}.cls-13{clip-path:url(#clip-path-11);}.cls-14{clip-path:url(#clip-path-12);}.cls-15{mask:url(#mask);}.cls-16{fill:#405a63;stroke:#000;stroke-miterlimit:10;}.cls-17{filter:url(#luminosity-noclip);}</style><clipPath id="clip-path"><polygon class="cls-3" points="229.13 2.84 433.13 2.84 87.87 163.84 -116.13 163.84 229.13 2.84"/></clipPath><clipPath id="clip-path-2"><polygon class="cls-3" points="26.13 2.84 230.13 2.84 -115.13 163.84 -319.13 163.84 26.13 2.84"/></clipPath><clipPath id="clip-path-3"><polygon class="cls-3" points="-175.36 2.84 28.64 2.84 -316.62 163.84 -520.62 163.84 -175.36 2.84"/></clipPath><clipPath id="clip-path-4"><polygon class="cls-3" points="433.13 2.84 637.13 2.84 291.87 163.84 87.87 163.84 433.13 2.84"/></clipPath><clipPath id="clip-path-5"><polygon class="cls-3" points="637.13 2.84 841.13 2.84 495.87 163.84 291.87 163.84 637.13 2.84"/></clipPath><clipPath id="clip-path-6"><polygon class="cls-3" points="841.13 2.84 1045.13 2.84 699.87 163.84 495.87 163.84 841.13 2.84"/></clipPath><clipPath id="clip-path-7"><polygon class="cls-3" points="1045.13 2.84 1249.13 2.84 903.87 163.84 699.87 163.84 1045.13 2.84"/></clipPath><clipPath id="clip-path-8"><polygon class="cls-3" points="1249.13 2.84 1453.13 2.84 1107.87 163.84 903.87 163.84 1249.13 2.84"/></clipPath><clipPath id="clip-path-9"><polygon class="cls-3" points="1657.13 2.84 1861.13 2.84 1515.87 163.84 1311.87 163.84 1657.13 2.84"/></clipPath><clipPath id="clip-path-10"><polygon class="cls-3" points="1453.13 2.84 1657.13 2.84 1311.87 163.84 1107.87 163.84 1453.13 2.84"/></clipPath><clipPath id="clip-path-11"><polygon class="cls-3" points="1861.13 2.84 2065.13 2.84 1719.87 163.84 1515.87 163.84 1861.13 2.84"/></clipPath><clipPath id="clip-path-12"><polygon class="cls-3" points="2065.13 2.84 2269.13 2.84 1923.87 163.84 1719.87 163.84 2065.13 2.84"/></clipPath><filter id="luminosity-noclip" x="-2118.7" y="-916.16" width="5784.05" height="1542.49" filterUnits="userSpaceOnUse" color-interpolation-filters="sRGB"><feFlood flood-color="#fff" result="bg"/><feBlend in="SourceGraphic" in2="bg"/></filter><image id="image" width="580" height="386" xlink:href="page2-.jpg"/><mask id="mask" x="-2118.7" y="-916.16" width="5784.05" height="1542.49" maskUnits="userSpaceOnUse"><g class="cls-17"><g class="cls-1"><g class="cls-2"><use transform="matrix(2.87, 0, -4.86, 2.27, 162.87, -248.97)" xlink:href="#image"/></g></g><g class="cls-1"><g class="cls-4"><use transform="matrix(2.87, 0, -4.86, 2.27, -40.13, -248.97)" xlink:href="#image"/></g></g><g class="cls-1"><g class="cls-5"><use transform="matrix(2.87, 0, -4.86, 2.27, -241.62, -248.97)" xlink:href="#image"/></g></g><g class="cls-1"><g class="cls-6"><use transform="matrix(2.87, 0, -4.86, 2.27, 366.87, -248.97)" xlink:href="#image"/></g></g><g class="cls-1"><g class="cls-7"><use transform="matrix(2.87, 0, -4.86, 2.27, 570.87, -248.97)" xlink:href="#image"/></g></g><g class="cls-1"><g class="cls-8"><use transform="matrix(2.87, 0, -4.86, 2.27, 774.87, -248.97)" xlink:href="#image"/></g></g><g class="cls-1"><g class="cls-9"><use transform="matrix(2.87, 0, -4.86, 2.27, 978.87, -248.97)" xlink:href="#image"/></g></g><g class="cls-1"><g class="cls-10"><use transform="matrix(2.87, 0, -4.86, 2.27, 1182.87, -248.97)" xlink:href="#image"/></g></g><g class="cls-1"><g class="cls-11"><use transform="matrix(2.87, 0, -4.86, 2.27, 1590.87, -248.97)" xlink:href="#image"/></g></g><g class="cls-1"><g class="cls-12"><use transform="matrix(2.87, 0, -4.86, 2.27, 1386.87, -248.97)" xlink:href="#image"/></g></g><g class="cls-1"><g class="cls-13"><use transform="matrix(2.87, 0, -4.86, 2.27, 1794.87, -248.97)" xlink:href="#image"/></g></g><g class="cls-1"><g class="cls-14"><use transform="matrix(2.87, 0, -4.86, 2.27, 1998.87, -248.97)" xlink:href="#image"/></g></g><image width="1600" height="1064" transform="translate(0.5 -916.16) scale(1.2 0.86)" xlink:href="DSC_2504.JPG"/></g></mask></defs><title>Asset 12</title><g id="Layer_2" data-name="Layer 2"><g id="Layer_1-2" data-name="Layer 1"><g class="cls-15"><rect class="cls-16" x="0.5" y="0.5" width="1920" height="163.34"/></g></g></g></svg>