<svg xmlns="http://www.w3.org/2000/svg" viewBox="0 0 1525.43 520"><defs><style>.cls-1{fill:#b7b7b7;opacity:0.8;}.cls-2{fill:#beb79b;}.cls-3{fill:#a9a17b;}.cls-4{fill:#7f723b;}.cls-5{fill:#fff;}.cls-6{fill:#fc0;stroke:#000;stroke-miterlimit:10;}.cls-7{fill:none;stroke:#4d4d4d;stroke-linejoin:round;stroke-width:3px;}</style></defs><title>Asset 18</title><g id="Layer_2" data-name="Layer 2"><g id="Layer_4" data-name="Layer 4"><rect class="cls-1" width="1525.43" height="520"/><rect class="cls-2" x="12.53" y="407.11" width="2.52" height="73.55"/><polygon class="cls-3" points="6.76 407.11 6.76 480.66 12.52 480.66 12.52 407.11 12.52 407.11 6.76 407.11 6.76 407.11 6.76 407.11"/><polygon class="cls-4" points="6.75 407.09 3.81 407.09 3.81 480.66 6.76 480.66 6.75 407.09"/><rect class="cls-2" x="12.53" y="333.55" width="2.52" height="73.55"/><polygon class="cls-3" points="6.76 333.56 6.76 407.11 12.52 407.11 12.52 333.55 12.52 333.55 6.76 333.55 6.76 333.56 6.76 333.56"/><polygon class="cls-4" points="6.75 333.54 3.81 333.54 3.81 407.11 6.76 407.11 6.75 333.54"/><rect class="cls-2" x="12.53" y="260" width="2.52" height="73.55"/><polygon class="cls-3" points="6.76 260 6.76 333.55 12.52 333.55 12.52 260 12.52 260 6.76 260 6.76 260 6.76 260"/><polygon class="cls-4" points="6.75 259.99 3.81 259.99 3.81 333.55 6.76 333.55 6.75 259.99"/><rect class="cls-2" x="12.53" y="186.45" width="2.52" height="73.55"/><polygon class="cls-3" points="6.76 186.45 6.76 260 12.52 260 12.52 186.45 12.52 186.45 6.76 186.45 6.76 186.45 6.76 186.45"/><polygon class="cls-4" points="6.75 186.43 3.81 186.43 3.81 260 6.76 260 6.75 186.43"/><rect class="cls-2" x="12.53" y="112.89" width="2.52" height="73.55"/><polygon class="cls-3" points="6.76 112.89 6.76 186.44 12.52 186.44 12.52 112.89 12.52 112.89 6.76 112.89 6.76 112.89 6.76 112.89"/><polygon class="cls-4" points="6.75 112.88 3.81 112.88 3.81 186.44 6.76 186.44 6.75 112.88"/><rect class="cls-2" x="12.53" y="39.34" width="2.52" height="73.55"/><polygon class="cls-3" points="6.76 39.34 6.76 112.89 12.52 112.89 12.52 39.34 12.52 39.34 6.76 39.34 6.76 39.34 6.76 39.34"/><polygon class="cls-4" points="6.75 39.33 3.81 39.33 3.81 112.89 6.76 112.89 6.75 39.33"/><rect class="cls-2" x="39.34" y="12.53" width="72.34" height="2.52"/><polygon class="cls-3" points="111.67 6.76 39.34 6.76 39.34 12.52 111.68 12.52 111.68 12.52 111.68 6.76 111.67 6.76 111.67 6.76"/><polygon class="cls-4" points="111.69 6.75 111.69 3.81 39.34 3.81 39.34 6.76 111.69 6.75"/><rect class="cls-2" x="111.68" y="12.53" width="72.34" height="2.52"/><polygon class="cls-3" points="184.01 6.76 111.68 6.76 111.68 12.52 184.01 12.52 184.01 12.52 184.01 6.76 184.01 6.76 184.01 6.76"/><polygon class="cls-4" points="184.03 6.75 184.03 3.81 111.68 3.81 111.68 6.76 184.03 6.75"/><rect class="cls-2" x="184.02" y="12.53" width="72.34" height="2.52"/><polygon class="cls-3" points="256.35 6.76 184.01 6.76 184.01 12.52 256.35 12.52 256.35 12.52 256.35 6.76 256.35 6.76 256.35 6.76"/><polygon class="cls-4" points="256.37 6.75 256.37 3.81 184.01 3.81 184.01 6.76 256.37 6.75"/><rect class="cls-2" x="256.35" y="12.53" width="72.34" height="2.52"/><polygon class="cls-3" points="328.69 6.76 256.35 6.76 256.35 12.52 328.69 12.52 328.69 12.52 328.69 6.76 328.69 6.76 328.69 6.76"/><polygon class="cls-4" points="328.7 6.75 328.7 3.81 256.35 3.81 256.35 6.76 328.7 6.75"/><rect class="cls-2" x="328.69" y="12.53" width="72.34" height="2.52"/><polygon class="cls-3" points="401.02 6.76 328.69 6.76 328.69 12.52 401.03 12.52 401.03 12.52 401.03 6.76 401.02 6.76 401.02 6.76"/><polygon class="cls-4" points="401.04 6.75 401.04 3.81 328.69 3.81 328.69 6.76 401.04 6.75"/><rect class="cls-2" x="401.03" y="12.53" width="72.34" height="2.52"/><polygon class="cls-3" points="473.36 6.76 401.03 6.76 401.03 12.52 473.36 12.52 473.36 12.52 473.36 6.76 473.36 6.76 473.36 6.76"/><polygon class="cls-4" points="473.38 6.75 473.38 3.81 401.03 3.81 401.03 6.76 473.38 6.75"/><rect class="cls-2" x="473.37" y="12.53" width="72.34" height="2.52"/><polygon class="cls-3" points="545.7 6.76 473.37 6.76 473.37 12.52 545.7 12.52 545.7 12.52 545.7 6.76 545.7 6.76 545.7 6.76"/><polygon class="cls-4" points="545.72 6.75 545.72 3.81 473.37 3.81 473.37 6.76 545.72 6.75"/><rect class="cls-2" x="545.7" y="12.53" width="72.34" height="2.52"/><polygon class="cls-3" points="618.04 6.76 545.7 6.76 545.7 12.52 618.04 12.52 618.04 12.52 618.04 6.76 618.04 6.76 618.04 6.76"/><polygon class="cls-4" points="618.05 6.75 618.05 3.81 545.7 3.81 545.7 6.76 618.05 6.75"/><rect class="cls-2" x="618.04" y="12.53" width="72.34" height="2.52"/><polygon class="cls-3" points="690.38 6.76 618.04 6.76 618.04 12.52 690.38 12.52 690.38 12.52 690.38 6.76 690.38 6.76 690.38 6.76"/><polygon class="cls-4" points="690.39 6.75 690.39 3.81 618.04 3.81 618.04 6.76 690.39 6.75"/><rect class="cls-2" x="690.38" y="12.53" width="72.34" height="2.52"/><polygon class="cls-3" points="762.71 6.76 690.38 6.76 690.38 12.52 762.71 12.52 762.71 12.52 762.71 6.76 762.71 6.76 762.71 6.76"/><polygon class="cls-4" points="762.73 6.75 762.73 3.81 690.38 3.81 690.38 6.76 762.73 6.75"/><rect class="cls-2" x="762.72" y="12.53" width="72.34" height="2.52"/><polygon class="cls-3" points="835.05 6.76 762.72 6.76 762.72 12.52 835.05 12.52 835.05 12.52 835.05 6.76 835.05 6.76 835.05 6.76"/><polygon class="cls-4" points="835.07 6.75 835.07 3.81 762.72 3.81 762.72 6.76 835.07 6.75"/><rect class="cls-2" x="835.05" y="12.53" width="72.34" height="2.52"/><polygon class="cls-3" points="907.39 6.76 835.05 6.76 835.05 12.52 907.39 12.52 907.39 12.52 907.39 6.76 907.39 6.76 907.39 6.76"/><polygon class="cls-4" points="907.4 6.75 907.4 3.81 835.05 3.81 835.05 6.76 907.4 6.75"/><rect class="cls-2" x="907.39" y="12.53" width="72.34" height="2.52"/><polygon class="cls-3" points="979.73 6.76 907.39 6.76 907.39 12.52 979.73 12.52 979.73 12.52 979.73 6.76 979.73 6.76 979.73 6.76"/><polygon class="cls-4" points="979.74 6.75 979.74 3.81 907.39 3.81 907.39 6.76 979.74 6.75"/><rect class="cls-2" x="979.73" y="12.53" width="72.34" height="2.52"/><polygon class="cls-3" points="1052.06 6.76 979.73 6.76 979.73 12.52 1052.06 12.52 1052.06 12.52 1052.06 6.76 1052.06 6.76 1052.06 6.76"/><polygon class="cls-4" points="1052.08 6.75 1052.08 3.81 979.73 3.81 979.73 6.76 1052.08 6.75"/><rect class="cls-2" x="1052.07" y="12.53" width="72.34" height="2.52"/><polygon class="cls-3" points="1124.4 6.76 1052.07 6.76 1052.07 12.52 1124.4 12.52 1124.4 12.52 1124.4 6.76 1124.4 6.76 1124.4 6.76"/><polygon class="cls-4" points="1124.42 6.75 1124.42 3.81 1052.07 3.81 1052.07 6.76 1124.42 6.75"/><rect class="cls-2" x="1124.4" y="12.53" width="72.34" height="2.52"/><polygon class="cls-3" points="1196.74 6.76 1124.4 6.76 1124.4 12.52 1196.74 12.52 1196.74 12.52 1196.74 6.76 1196.74 6.76 1196.74 6.76"/><polygon class="cls-4" points="1196.75 6.75 1196.75 3.81 1124.4 3.81 1124.4 6.76 1196.75 6.75"/><rect class="cls-2" x="1196.74" y="12.53" width="72.34" height="2.52"/><polygon class="cls-3" points="1269.08 6.76 1196.74 6.76 1196.74 12.52 1269.08 12.52 1269.08 12.52 1269.08 6.76 1269.08 6.76 1269.08 6.76"/><polygon class="cls-4" points="1269.09 6.75 1269.09 3.81 1196.74 3.81 1196.74 6.76 1269.09 6.75"/><rect class="cls-2" x="1269.08" y="12.53" width="72.34" height="2.52"/><polygon class="cls-3" points="1341.41 6.76 1269.08 6.76 1269.08 12.52 1341.41 12.52 1341.41 12.52 1341.41 6.76 1341.41 6.76 1341.41 6.76"/><polygon class="cls-4" points="1341.43 6.75 1341.43 3.81 1269.08 3.81 1269.08 6.76 1341.43 6.75"/><rect class="cls-2" x="1341.42" y="12.53" width="72.34" height="2.52"/><polygon class="cls-3" points="1413.75 6.76 1341.41 6.76 1341.41 12.52 1413.75 12.52 1413.75 12.52 1413.75 6.76 1413.75 6.76 1413.75 6.76"/><polygon class="cls-4" points="1413.77 6.75 1413.77 3.81 1341.41 3.81 1341.41 6.76 1413.77 6.75"/><rect class="cls-2" x="1413.75" y="12.53" width="72.34" height="2.52"/><polygon class="cls-3" points="1486.09 6.76 1413.75 6.76 1413.75 12.52 1486.09 12.52 1486.09 12.52 1486.09 6.76 1486.09 6.76 1486.09 6.76"/><polygon class="cls-4" points="1486.1 6.75 1486.1 3.81 1413.75 3.81 1413.75 6.76 1486.1 6.75"/><rect class="cls-2" x="1510.38" y="39.34" width="2.52" height="73.55"/><polygon class="cls-3" points="1518.67 112.89 1518.67 39.34 1512.91 39.34 1512.91 112.89 1512.91 112.89 1518.66 112.89 1518.66 112.89 1518.67 112.89"/><polygon class="cls-4" points="1518.68 112.91 1521.62 112.91 1521.62 39.34 1518.67 39.34 1518.68 112.91"/><rect class="cls-2" x="1510.38" y="112.89" width="2.52" height="73.55"/><polygon class="cls-3" points="1518.67 186.44 1518.67 112.89 1512.91 112.89 1512.91 186.45 1512.91 186.45 1518.66 186.45 1518.66 186.44 1518.67 186.44"/><polygon class="cls-4" points="1518.68 186.46 1521.62 186.46 1521.62 112.89 1518.67 112.89 1518.68 186.46"/><rect class="cls-2" x="1510.38" y="186.45" width="2.52" height="73.55"/><polygon class="cls-3" points="1518.67 260 1518.67 186.45 1512.91 186.45 1512.91 260 1512.91 260 1518.66 260 1518.66 260 1518.67 260"/><polygon class="cls-4" points="1518.68 260.01 1521.62 260.01 1521.62 186.45 1518.67 186.45 1518.68 260.01"/><rect class="cls-2" x="1510.38" y="260" width="2.52" height="73.55"/><polygon class="cls-3" points="1518.67 333.55 1518.67 260 1512.91 260 1512.91 333.55 1512.91 333.55 1518.66 333.55 1518.66 333.55 1518.67 333.55"/><polygon class="cls-4" points="1518.68 333.57 1521.62 333.57 1521.62 260 1518.67 260 1518.68 333.57"/><rect class="cls-2" x="1510.38" y="333.55" width="2.52" height="73.55"/><polygon class="cls-3" points="1518.67 407.11 1518.67 333.56 1512.91 333.56 1512.91 407.11 1512.91 407.11 1518.66 407.11 1518.66 407.11 1518.67 407.11"/><polygon class="cls-4" points="1518.68 407.12 1521.62 407.12 1521.62 333.56 1518.67 333.56 1518.68 407.12"/><rect class="cls-2" x="1510.38" y="407.11" width="2.52" height="73.55"/><polygon class="cls-3" points="1518.67 480.66 1518.67 407.11 1512.91 407.11 1512.91 480.66 1512.91 480.66 1518.66 480.66 1518.66 480.66 1518.67 480.66"/><polygon class="cls-4" points="1518.68 480.68 1521.62 480.68 1521.62 407.11 1518.67 407.11 1518.68 480.68"/><rect class="cls-2" x="1413.75" y="504.95" width="72.34" height="2.52"/><polygon class="cls-3" points="1413.75 513.24 1486.09 513.24 1486.09 507.48 1413.75 507.48 1413.75 507.48 1413.75 513.24 1413.75 513.24 1413.75 513.24"/><polygon class="cls-4" points="1413.74 513.25 1413.74 516.19 1486.09 516.19 1486.09 513.24 1413.74 513.25"/><rect class="cls-2" x="1341.41" y="504.95" width="72.34" height="2.52"/><polygon class="cls-3" points="1341.42 513.24 1413.75 513.24 1413.75 507.48 1341.41 507.48 1341.41 507.48 1341.41 513.24 1341.42 513.24 1341.42 513.24"/><polygon class="cls-4" points="1341.4 513.25 1341.4 516.19 1413.75 516.19 1413.75 513.24 1341.4 513.25"/><rect class="cls-2" x="1269.08" y="504.95" width="72.34" height="2.52"/><polygon class="cls-3" points="1269.08 513.24 1341.41 513.24 1341.41 507.48 1269.08 507.48 1269.08 507.48 1269.08 513.24 1269.08 513.24 1269.08 513.24"/><polygon class="cls-4" points="1269.06 513.25 1269.06 516.19 1341.41 516.19 1341.41 513.24 1269.06 513.25"/><rect class="cls-2" x="1196.74" y="504.95" width="72.34" height="2.52"/><polygon class="cls-3" points="1196.74 513.24 1269.08 513.24 1269.08 507.48 1196.74 507.48 1196.74 507.48 1196.74 513.24 1196.74 513.24 1196.74 513.24"/><polygon class="cls-4" points="1196.72 513.25 1196.72 516.19 1269.08 516.19 1269.08 513.24 1196.72 513.25"/><rect class="cls-2" x="1124.4" y="504.95" width="72.34" height="2.52"/><polygon class="cls-3" points="1124.4 513.24 1196.74 513.24 1196.74 507.48 1124.4 507.48 1124.4 507.48 1124.4 513.24 1124.4 513.24 1124.4 513.24"/><polygon class="cls-4" points="1124.39 513.25 1124.39 516.19 1196.74 516.19 1196.74 513.24 1124.39 513.25"/><rect class="cls-2" x="1052.06" y="504.95" width="72.34" height="2.52"/><polygon class="cls-3" points="1052.07 513.24 1124.4 513.24 1124.4 507.48 1052.06 507.48 1052.06 507.48 1052.06 513.24 1052.07 513.24 1052.07 513.24"/><polygon class="cls-4" points="1052.05 513.25 1052.05 516.19 1124.4 516.19 1124.4 513.24 1052.05 513.25"/><rect class="cls-2" x="979.73" y="504.95" width="72.34" height="2.52"/><polygon class="cls-3" points="979.73 513.24 1052.06 513.24 1052.06 507.48 979.73 507.48 979.73 507.48 979.73 513.24 979.73 513.24 979.73 513.24"/><polygon class="cls-4" points="979.71 513.25 979.71 516.19 1052.06 516.19 1052.06 513.24 979.71 513.25"/><rect class="cls-2" x="907.39" y="504.95" width="72.34" height="2.52"/><polygon class="cls-3" points="907.39 513.24 979.73 513.24 979.73 507.48 907.39 507.48 907.39 507.48 907.39 513.24 907.39 513.24 907.39 513.24"/><polygon class="cls-4" points="907.38 513.25 907.38 516.19 979.73 516.19 979.73 513.24 907.38 513.25"/><rect class="cls-2" x="835.05" y="504.95" width="72.34" height="2.52"/><polygon class="cls-3" points="835.05 513.24 907.39 513.24 907.39 507.48 835.05 507.48 835.05 507.48 835.05 513.24 835.05 513.24 835.05 513.24"/><polygon class="cls-4" points="835.04 513.25 835.04 516.19 907.39 516.19 907.39 513.24 835.04 513.25"/><rect class="cls-2" x="762.71" y="504.95" width="72.34" height="2.52"/><polygon class="cls-3" points="762.72 513.24 835.05 513.24 835.05 507.48 762.71 507.48 762.71 507.48 762.71 513.24 762.72 513.24 762.72 513.24"/><polygon class="cls-4" points="762.7 513.25 762.7 516.19 835.05 516.19 835.05 513.24 762.7 513.25"/><rect class="cls-2" x="690.38" y="504.95" width="72.34" height="2.52"/><polygon class="cls-3" points="690.38 513.24 762.71 513.24 762.71 507.48 690.38 507.48 690.38 507.48 690.38 513.24 690.38 513.24 690.38 513.24"/><polygon class="cls-4" points="690.36 513.25 690.36 516.19 762.71 516.19 762.71 513.24 690.36 513.25"/><rect class="cls-2" x="618.04" y="504.95" width="72.34" height="2.52"/><polygon class="cls-3" points="618.04 513.24 690.38 513.24 690.38 507.48 618.04 507.48 618.04 507.48 618.04 513.24 618.04 513.24 618.04 513.24"/><polygon class="cls-4" points="618.02 513.25 618.02 516.19 690.38 516.19 690.38 513.24 618.02 513.25"/><rect class="cls-2" x="545.7" y="504.95" width="72.34" height="2.52"/><polygon class="cls-3" points="545.7 513.24 618.04 513.24 618.04 507.48 545.7 507.48 545.7 507.48 545.7 513.24 545.7 513.24 545.7 513.24"/><polygon class="cls-4" points="545.69 513.25 545.69 516.19 618.04 516.19 618.04 513.24 545.69 513.25"/><rect class="cls-2" x="473.36" y="504.95" width="72.34" height="2.52"/><polygon class="cls-3" points="473.37 513.24 545.7 513.24 545.7 507.48 473.36 507.48 473.36 507.48 473.36 513.24 473.37 513.24 473.37 513.24"/><polygon class="cls-4" points="473.35 513.25 473.35 516.19 545.7 516.19 545.7 513.24 473.35 513.25"/><rect class="cls-2" x="401.03" y="504.95" width="72.34" height="2.52"/><polygon class="cls-3" points="401.03 513.24 473.36 513.24 473.36 507.48 401.03 507.48 401.03 507.48 401.03 513.24 401.03 513.24 401.03 513.24"/><polygon class="cls-4" points="401.01 513.25 401.01 516.19 473.36 516.19 473.36 513.24 401.01 513.25"/><rect class="cls-2" x="328.69" y="504.95" width="72.34" height="2.52"/><polygon class="cls-3" points="328.69 513.24 401.03 513.24 401.03 507.48 328.69 507.48 328.69 507.48 328.69 513.24 328.69 513.24 328.69 513.24"/><polygon class="cls-4" points="328.68 513.25 328.68 516.19 401.03 516.19 401.03 513.24 328.68 513.25"/><rect class="cls-2" x="256.35" y="504.95" width="72.34" height="2.52"/><polygon class="cls-3" points="256.35 513.24 328.69 513.24 328.69 507.48 256.35 507.48 256.35 507.48 256.35 513.24 256.35 513.24 256.35 513.24"/><polygon class="cls-4" points="256.34 513.25 256.34 516.19 328.69 516.19 328.69 513.24 256.34 513.25"/><rect class="cls-2" x="184.01" y="504.95" width="72.34" height="2.52"/><polygon class="cls-3" points="184.02 513.24 256.35 513.24 256.35 507.48 184.01 507.48 184.01 507.48 184.01 513.24 184.02 513.24 184.02 513.24"/><polygon class="cls-4" points="184 513.25 184 516.19 256.35 516.19 256.35 513.24 184 513.25"/><rect class="cls-2" x="111.68" y="504.95" width="72.34" height="2.52"/><polygon class="cls-3" points="111.68 513.24 184.01 513.24 184.01 507.48 111.68 507.48 111.68 507.48 111.68 513.24 111.68 513.24 111.68 513.24"/><polygon class="cls-4" points="111.66 513.25 111.66 516.19 184.01 516.19 184.01 513.24 111.66 513.25"/><rect class="cls-2" x="39.34" y="504.95" width="72.34" height="2.52"/><polygon class="cls-3" points="39.34 513.24 111.68 513.24 111.68 507.48 39.34 507.48 39.34 507.48 39.34 513.24 39.34 513.24 39.34 513.24"/><polygon class="cls-4" points="39.33 513.25 39.33 516.19 111.68 516.19 111.68 513.24 39.33 513.25"/><polygon class="cls-2" points="39.34 12.52 12.53 12.52 12.52 39.34 15.06 39.34 15.06 15.05 39.34 15.05 39.34 12.52"/><polygon class="cls-3" points="39.34 6.76 6.76 6.76 6.76 39.34 12.52 39.34 12.52 12.52 39.34 12.52 39.34 6.76"/><polygon class="cls-4" points="39.34 3.8 3.8 3.8 3.8 39.34 6.75 39.34 6.75 6.76 39.34 6.76 39.34 3.8"/><polygon class="cls-5" points="6.76 7.7 3.87 3.9 6.76 6.78 6.76 7.7"/><polygon class="cls-5" points="15.06 15.86 12.64 12.65 15.06 15.05 15.06 15.86"/><polygon class="cls-2" points="1512.91 39.34 1512.91 12.53 1486.09 12.52 1486.09 15.06 1510.38 15.06 1510.38 39.34 1512.91 39.34"/><polygon class="cls-3" points="1518.66 39.34 1518.67 6.76 1486.09 6.76 1486.09 12.52 1512.91 12.52 1512.91 39.34 1518.66 39.34"/><polygon class="cls-4" points="1521.62 39.34 1521.62 3.8 1486.08 3.8 1486.08 6.75 1518.66 6.75 1518.66 39.34 1521.62 39.34"/><polygon class="cls-5" points="1517.73 6.76 1521.53 3.87 1518.65 6.76 1517.73 6.76"/><polygon class="cls-5" points="1509.57 15.06 1512.78 12.64 1510.38 15.06 1509.57 15.06"/><polygon class="cls-2" points="1486.09 507.48 1512.9 507.48 1512.91 480.66 1510.37 480.66 1510.37 504.95 1486.09 504.95 1486.09 507.48"/><polygon class="cls-3" points="1486.09 513.24 1518.66 513.24 1518.66 480.66 1512.91 480.66 1512.91 507.48 1486.09 507.48 1486.09 513.24"/><polygon class="cls-4" points="1486.09 516.2 1521.62 516.2 1521.63 480.65 1518.67 480.65 1518.67 513.24 1486.09 513.24 1486.09 516.2"/><polygon class="cls-5" points="1518.67 512.3 1521.56 516.11 1518.67 513.23 1518.67 512.3"/><polygon class="cls-5" points="1510.37 504.14 1512.79 507.35 1510.37 504.95 1510.37 504.14"/><polygon class="cls-2" points="12.52 480.66 12.52 507.47 39.34 507.48 39.34 504.94 15.05 504.94 15.05 480.66 12.52 480.66"/><polygon class="cls-3" points="6.76 480.66 6.76 513.24 39.34 513.24 39.34 507.48 12.52 507.48 12.52 480.66 6.76 480.66"/><polygon class="cls-4" points="3.8 480.67 3.8 516.2 39.34 516.2 39.34 513.25 6.76 513.25 6.76 480.67 3.8 480.67"/><polygon class="cls-5" points="7.7 513.24 3.9 516.13 6.78 513.24 7.7 513.24"/><polygon class="cls-5" points="15.86 504.94 12.65 507.36 15.05 504.94 15.86 504.94"/><rect class="cls-6" x="43.13" y="39.89" width="340.59" height="432"/><rect class="cls-7" x="410.34" y="53.3" width="1072" height="190.2" rx="33.32" ry="33.32"/><rect class="cls-7" x="410.34" y="277.48" width="1072" height="83.51" rx="33.32" ry="33.32"/><rect class="cls-7" x="410.34" y="374.98" width="1072" height="83.51" rx="33.32" ry="33.32"/></g></g></svg>