<svg xmlns="http://www.w3.org/2000/svg" xmlns:xlink="http://www.w3.org/1999/xlink" viewBox="0 0 1921 917.66"><defs><style>.cls-1{opacity:0.21;}.cls-2{clip-path:url(#clip-path);}.cls-3{fill:none;}.cls-4{clip-path:url(#clip-path-2);}.cls-5{clip-path:url(#clip-path-3);}.cls-6{clip-path:url(#clip-path-4);}.cls-7{clip-path:url(#clip-path-5);}.cls-8{clip-path:url(#clip-path-6);}.cls-9{clip-path:url(#clip-path-7);}.cls-10{clip-path:url(#clip-path-8);}.cls-11{clip-path:url(#clip-path-9);}.cls-12{clip-path:url(#clip-path-10);}.cls-13{clip-path:url(#clip-path-11);}.cls-14{clip-path:url(#clip-path-12);}.cls-15{fill:#fff;}.cls-15,.cls-17{stroke:#000;stroke-miterlimit:10;}.cls-16{mask:url(#mask);}.cls-17{fill:#bcc4c2;}.cls-18{filter:url(#luminosity-noclip);}</style><clipPath id="clip-path"><polygon class="cls-3" points="229.13 919.5 433.13 919.5 87.87 1080.5 -116.13 1080.5 229.13 919.5"/></clipPath><clipPath id="clip-path-2"><polygon class="cls-3" points="26.13 919.5 230.13 919.5 -115.13 1080.5 -319.13 1080.5 26.13 919.5"/></clipPath><clipPath id="clip-path-3"><polygon class="cls-3" points="-175.36 919.5 28.64 919.5 -316.62 1080.5 -520.62 1080.5 -175.36 919.5"/></clipPath><clipPath id="clip-path-4"><polygon class="cls-3" points="433.13 919.5 637.13 919.5 291.87 1080.5 87.87 1080.5 433.13 919.5"/></clipPath><clipPath id="clip-path-5"><polygon class="cls-3" points="637.13 919.5 841.13 919.5 495.87 1080.5 291.87 1080.5 637.13 919.5"/></clipPath><clipPath id="clip-path-6"><polygon class="cls-3" points="841.13 919.5 1045.13 919.5 699.87 1080.5 495.87 1080.5 841.13 919.5"/></clipPath><clipPath id="clip-path-7"><polygon class="cls-3" points="1045.13 919.5 1249.13 919.5 903.87 1080.5 699.87 1080.5 1045.13 919.5"/></clipPath><clipPath id="clip-path-8"><polygon class="cls-3" points="1249.13 919.5 1453.13 919.5 1107.87 1080.5 903.87 1080.5 1249.13 919.5"/></clipPath><clipPath id="clip-path-9"><polygon class="cls-3" points="1657.13 919.5 1861.13 919.5 1515.87 1080.5 1311.87 1080.5 1657.13 919.5"/></clipPath><clipPath id="clip-path-10"><polygon class="cls-3" points="1453.13 919.5 1657.13 919.5 1311.87 1080.5 1107.87 1080.5 1453.13 919.5"/></clipPath><clipPath id="clip-path-11"><polygon class="cls-3" points="1861.13 919.5 2065.13 919.5 1719.87 1080.5 1515.87 1080.5 1861.13 919.5"/></clipPath><clipPath id="clip-path-12"><polygon class="cls-3" points="2065.13 919.5 2269.13 919.5 1923.87 1080.5 1719.87 1080.5 2065.13 919.5"/></clipPath><filter id="luminosity-noclip" x="-2118.7" y="0" width="5784.05" height="1542.99" filterUnits="userSpaceOnUse" color-interpolation-filters="sRGB"><feFlood flood-color="#fff" result="bg"/><feBlend in="SourceGraphic" in2="bg"/></filter><image id="image" width="580" height="386" xlink:href="page2-.jpg"/><mask id="mask" x="-2118.7" y="0" width="5784.05" height="1542.99" maskUnits="userSpaceOnUse"><g class="cls-18"><g class="cls-1"><g class="cls-2"><use transform="matrix(2.87, 0, -4.86, 2.27, 162.87, 667.7)" xlink:href="#image"/></g></g><g class="cls-1"><g class="cls-4"><use transform="matrix(2.87, 0, -4.86, 2.27, -40.13, 667.7)" xlink:href="#image"/></g></g><g class="cls-1"><g class="cls-5"><use transform="matrix(2.87, 0, -4.86, 2.27, -241.62, 667.7)" xlink:href="#image"/></g></g><g class="cls-1"><g class="cls-6"><use transform="matrix(2.87, 0, -4.86, 2.27, 366.87, 667.7)" xlink:href="#image"/></g></g><g class="cls-1"><g class="cls-7"><use transform="matrix(2.87, 0, -4.86, 2.27, 570.87, 667.7)" xlink:href="#image"/></g></g><g class="cls-1"><g class="cls-8"><use transform="matrix(2.87, 0, -4.86, 2.27, 774.87, 667.7)" xlink:href="#image"/></g></g><g class="cls-1"><g class="cls-9"><use transform="matrix(2.87, 0, -4.86, 2.27, 978.87, 667.7)" xlink:href="#image"/></g></g><g class="cls-1"><g class="cls-10"><use transform="matrix(2.87, 0, -4.86, 2.27, 1182.87, 667.7)" xlink:href="#image"/></g></g><g class="cls-1"><g class="cls-11"><use transform="matrix(2.87, 0, -4.86, 2.27, 1590.87, 667.7)" xlink:href="#image"/></g></g><g class="cls-1"><g class="cls-12"><use transform="matrix(2.87, 0, -4.86, 2.27, 1386.87, 667.7)" xlink:href="#image"/></g></g><g class="cls-1"><g class="cls-13"><use transform="matrix(2.87, 0, -4.86, 2.27, 1794.87, 667.7)" xlink:href="#image"/></g></g><g class="cls-1"><g class="cls-14"><use transform="matrix(2.87, 0, -4.86, 2.27, 1998.87, 667.7)" xlink:href="#image"/></g></g><image width="1600" height="1064" transform="translate(0.5 0.5) scale(1.2 0.86)" xlink:href="DSC_2504.JPG"/></g></mask></defs><title>Asset 13</title><g id="Layer_2" data-name="Layer 2"><g id="Layer_1-2" data-name="Layer 1"><rect class="cls-15" x="0.5" y="0.5" width="1920" height="916.66"/><g class="cls-16"><rect class="cls-17" x="0.5" y="0.5" width="1920" height="916.66"/></g></g></g></svg>